<?xml version="1.0" encoding="UTF-8" standalone="no"?>
<!-- Created with Inkscape (http://www.inkscape.org/) -->

<svg
   xmlns:dc="http://purl.org/dc/elements/1.1/"
   xmlns:cc="http://creativecommons.org/ns#"
   xmlns:rdf="http://www.w3.org/1999/02/22-rdf-syntax-ns#"
   xmlns:svg="http://www.w3.org/2000/svg"
   xmlns="http://www.w3.org/2000/svg"
   xmlns:sodipodi="http://sodipodi.sourceforge.net/DTD/sodipodi-0.dtd"
   xmlns:inkscape="http://www.inkscape.org/namespaces/inkscape"
   width="744.09448819"
   height="1052.3622047"
   id="svg3113"
   version="1.1"
   inkscape:version="0.48.5 r10040"
   sodipodi:docname="New document 6">
  <defs
     id="defs3115" />
  <sodipodi:namedview
     id="base"
     pagecolor="#ffffff"
     bordercolor="#666666"
     borderopacity="1.0"
     inkscape:pageopacity="0.0"
     inkscape:pageshadow="2"
     inkscape:zoom="0.35"
     inkscape:cx="375"
     inkscape:cy="520"
     inkscape:document-units="px"
     inkscape:current-layer="layer1"
     showgrid="false"
     inkscape:window-width="1920"
     inkscape:window-height="1027"
     inkscape:window-x="-8"
     inkscape:window-y="-8"
     inkscape:window-maximized="1" />
  <metadata
     id="metadata3118">
    <rdf:RDF>
      <cc:Work
         rdf:about="">
        <dc:format>image/svg+xml</dc:format>
        <dc:type
           rdf:resource="http://purl.org/dc/dcmitype/StillImage" />
        <dc:title></dc:title>
      </cc:Work>
    </rdf:RDF>
  </metadata>
  <g
     inkscape:label="Layer 1"
     inkscape:groupmode="layer"
     id="layer1">
    <path
       inkscape:connector-curvature="0"
       id="path3017"
       d="m 16.914323,117.76678 c 3.490379,0 6.357475,0 9.224572,0 142.232915,0 284.590495,-1.24657 426.823405,0.49862 100.5977,1.24657 180.50243,43.75439 233.10742,131.51248 27.4244,45.74889 38.02019,96.35937 37.02294,149.58764 -0.74794,39.64073 -8.8506,77.53626 -24.93128,113.6866 -0.37397,0.87259 -0.62328,1.9945 -0.99725,3.61503 2.36847,5.98351 5.36023,12.34098 7.60404,18.94777 33.53256,99.7251 24.68196,193.84067 -40.01469,278.85631 -41.88454,55.09812 -99.7251,85.51427 -167.53816,96.48403 -18.82312,2.99175 -38.14485,4.11366 -57.21728,4.11366 -137.122,0.37397 -274.11935,0.12466 -411.241362,0.12466 -3.615034,0 -7.105413,0 -11.468386,0 -0.249312,-3.73969 -0.623281,-6.35748 -0.623281,-9.09992 -0.124657,-46.87079 -0.249313,-93.86624 -0.124657,-140.73704 0.249313,-75.04315 49.987217,-135.7508 123.285166,-150.58491 10.59578,-2.11915 21.56554,-2.61778 32.41064,-2.61778 91.49778,-0.24931 182.99555,-0.12466 274.36867,-0.37397 34.77913,-0.12465 68.43635,-6.35747 100.22372,-21.31624 32.90928,-15.45739 59.83506,-37.89553 80.65267,-67.56375 1.49588,-2.11916 2.74244,-4.23832 4.36298,-6.73144 -15.95602,-24.68196 -36.0257,-44.87628 -60.583,-60.58299 C 536.85604,433.52137 498.83585,421.92832 458.19787,421.55435 363.33438,420.68176 268.47088,421.18039 173.73204,420.80642 113.39837,420.5571 67.026196,395.25186 35.98676,342.89619 23.521111,321.7046 17.03898,298.51852 16.789667,274.08587 c -0.997251,-49.73789 -0.623282,-99.7251 -0.623282,-149.7123 0,-1.74519 0.373969,-3.61504 0.747938,-6.60679 z M 658.27135,577.12549 c -1.12191,0.37397 -1.49588,0.37397 -1.62054,0.49863 -1.24656,1.24656 -2.49312,2.61778 -3.73969,3.86434 -30.41615,32.78463 -66.81581,55.97071 -109.07432,70.68017 -32.90928,11.46838 -66.94047,16.08067 -101.47029,16.20532 -89.62793,0.37397 -179.25586,0.12466 -268.88379,0.12466 -7.23006,0 -14.58479,0 -21.6902,1.37122 -47.49407,8.97526 -79.032131,47.12011 -79.281443,95.48679 -0.124657,28.54631 0,56.96796 0.124656,85.51427 0,2.49313 0.373969,4.98626 0.498625,8.35198 4.238317,0 7.853352,0 11.34373,0 116.055072,0 232.110152,0.12465 348.165232,-0.12466 16.57929,0 33.28325,-0.49862 49.61323,-2.74244 51.60774,-6.98076 95.98541,-28.92028 130.76453,-68.18703 38.26951,-43.25576 54.10087,-94.6142 53.47759,-151.58216 -0.24932,-20.06968 -2.49313,-39.76538 -8.22732,-59.46109 z m -1.12191,-119.17148 c 1.37122,-3.989 2.11916,-5.60953 2.49313,-7.23006 9.22457,-37.89554 9.34922,-75.91573 0.49862,-113.81127 C 637.20442,239.30674 555.5545,176.10596 457.20062,174.73474 331.547,172.98955 205.89338,174.23611 80.239772,174.23611 c -2.493128,0 -4.861599,0.37397 -7.354726,0.62328 -0.124657,2.36848 -0.373969,3.98901 -0.373969,5.48489 0,30.04218 -0.124657,60.08437 0,90.12655 0,6.48214 0.872594,12.96427 2.243814,19.19709 10.097166,45.00095 48.117359,75.04313 95.112799,75.16779 91.49777,0.12465 182.87089,-0.24932 274.36867,0.12465 16.45464,0 33.15859,0.99725 49.48858,3.49038 62.20353,9.47389 115.55645,36.52432 158.68756,82.77183 1.62053,1.62053 2.74244,3.61504 4.73694,6.73144 z" />
  </g>
</svg>
